<svg width="1000" height="1000" viewBox="0 0 1000 1000" fill="none" xmlns="http://www.w3.org/2000/svg">
<rect width="1000" height="1000" fill="#DDDDDD"/>
<path d="M558.333 416.667H441.667C435.036 416.667 428.677 419.301 423.989 423.989C419.301 428.678 416.667 435.037 416.667 441.667V558.334C416.667 564.964 419.301 571.323 423.989 576.011C428.677 580.7 435.036 583.334 441.667 583.334H558.333C559.704 583.315 561.07 583.175 562.417 582.917L564.917 582.334H565.5H565.917L569 581.167L570.083 580.584C570.917 580.084 571.833 579.667 572.667 579.084C573.779 578.265 574.837 577.374 575.833 576.417L576.417 575.667C577.235 574.838 577.987 573.946 578.667 573L579.417 571.917C579.999 570.989 580.501 570.013 580.917 569C581.145 568.601 581.341 568.182 581.5 567.75C581.917 566.75 582.167 565.667 582.5 564.584V563.334C582.973 561.705 583.252 560.027 583.333 558.334V441.667C583.333 435.037 580.7 428.678 576.011 423.989C571.323 419.301 564.964 416.667 558.333 416.667ZM441.667 566.667C439.457 566.667 437.337 565.789 435.774 564.226C434.211 562.663 433.333 560.544 433.333 558.334V522.417L460.75 494.917C461.525 494.136 462.446 493.516 463.462 493.093C464.477 492.67 465.567 492.452 466.667 492.452C467.767 492.452 468.856 492.67 469.872 493.093C470.887 493.516 471.809 494.136 472.583 494.917L544.25 566.667H441.667ZM566.667 558.334C566.659 559.361 566.461 560.378 566.083 561.334C565.893 561.74 565.67 562.13 565.417 562.5C565.194 562.853 564.943 563.188 564.667 563.5L520.083 518.917L527.417 511.584C528.191 510.803 529.113 510.183 530.129 509.76C531.144 509.336 532.233 509.119 533.333 509.119C534.434 509.119 535.523 509.336 536.538 509.76C537.554 510.183 538.475 510.803 539.25 511.584L566.667 539.084V558.334ZM566.667 515.5L551 500C546.231 495.475 539.908 492.953 533.333 492.953C526.759 492.953 520.436 495.475 515.667 500L508.333 507.334L484.333 483.334C479.564 478.809 473.241 476.286 466.667 476.286C460.093 476.286 453.769 478.809 449 483.334L433.333 498.834V441.667C433.333 439.457 434.211 437.337 435.774 435.774C437.337 434.212 439.457 433.334 441.667 433.334H558.333C560.544 433.334 562.663 434.212 564.226 435.774C565.789 437.337 566.667 439.457 566.667 441.667V515.5ZM512.5 450C510.028 450 507.611 450.733 505.555 452.107C503.5 453.48 501.898 455.433 500.952 457.717C500.005 460.001 499.758 462.514 500.24 464.939C500.723 467.364 501.913 469.591 503.661 471.339C505.409 473.087 507.637 474.278 510.061 474.76C512.486 475.242 515 474.995 517.284 474.049C519.568 473.103 521.52 471.501 522.893 469.445C524.267 467.389 525 464.973 525 462.5C525 459.185 523.683 456.006 521.339 453.661C518.995 451.317 515.815 450 512.5 450Z" fill="black"/>
</svg>
